<?xml version="1.0" encoding="UTF-8" standalone="no"?>
<svg width="20px" height="20px" viewBox="0 0 20 20" version="1.1" xmlns="http://www.w3.org/2000/svg" xmlns:xlink="http://www.w3.org/1999/xlink">
    <!-- Generator: Sketch 39.1 (31720) - http://www.bohemiancoding.com/sketch -->
    <title>Camera</title>
    <desc>Created with Sketch.</desc>
    <defs></defs>
    <g id="Page-1" stroke="none" stroke-width="1" fill="none" fill-rule="evenodd">
        <g id="Home-Screen" transform="translate(-131.000000, -632.000000)" fill="#33495F">
            <g id="Tab-Bar" transform="translate(0.000000, 618.000000)">
                <g id="Camera" transform="translate(131.000000, 15.000000)">
                    <path d="M10,13.0024 C8.346,13.0024 7,11.6564 7,10.0024 C7,8.3484 8.346,7.0024 10,7.0024 C11.654,7.0024 13,8.3484 13,10.0024 C13,11.6564 11.654,13.0024 10,13.0024 M10,5.0024 C7.243,5.0024 5,7.2454 5,10.0024 C5,12.7594 7.243,15.0024 10,15.0024 C12.757,15.0024 15,12.7594 15,10.0024 C15,7.2454 12.757,5.0024 10,5.0024" id="Fill-461"></path>
                    <path d="M2,16.0024 L2,5.0024 L6.535,5.0024 L8.535,2.0024 L11.465,2.0024 L13.465,5.0024 L18,5.0024 L18.001,16.0024 L2,16.0024 Z M18,3.0024 L14.535,3.0024 L13.129,0.8944 C12.757,0.3354 12.135,0.0024 11.465,0.0024 L8.535,0.0024 C7.865,0.0024 7.243,0.3354 6.871,0.8944 L5.465,3.0024 L2,3.0024 C0.897,3.0024 0,3.8994 0,5.0024 L0,16.0024 C0,17.1054 0.897,18.0024 2,18.0024 L18,18.0024 C19.103,18.0024 20,17.1054 20,16.0024 L20,5.0024 C20,3.8994 19.103,3.0024 18,3.0024 L18,3.0024 Z" id="Fill-462"></path>
                </g>
            </g>
        </g>
    </g>
</svg>