<?xml version="1.0" encoding="UTF-8" standalone="no"?>
<svg width="16px" height="16px" viewBox="0 0 16 16" version="1.1" xmlns="http://www.w3.org/2000/svg" xmlns:xlink="http://www.w3.org/1999/xlink">
    <!-- Generator: Sketch 39.1 (31720) - http://www.bohemiancoding.com/sketch -->
    <title>Clock</title>
    <desc>Created with Sketch.</desc>
    <defs></defs>
    <g id="Page-1" stroke="none" stroke-width="1" fill="none" fill-rule="evenodd">
        <g id="Map-Screen-Details" transform="translate(-24.000000, -469.000000)" fill="#227EBA">
            <g id="Card-1" transform="translate(8.000000, 211.000000)">
                <g id="Clock" transform="translate(16.000000, 258.000000)">
                    <path d="M8,14.4004 C4.4712,14.4004 1.6,11.5292 1.6,8.0004 C1.6,4.4716 4.4712,1.6004 8,1.6004 C11.5288,1.6004 14.4,4.4716 14.4,8.0004 C14.4,11.5292 11.5288,14.4004 8,14.4004 M8,0.0004 C3.5888,0.0004 0,3.5892 0,8.0004 C0,12.4124 3.5888,16.0004 8,16.0004 C12.4112,16.0004 16,12.4124 16,8.0004 C16,3.5892 12.4112,0.0004 8,0.0004" id="Fill-436"></path>
                    <path d="M8.8,4 C8.8,3.5581722 8.4418278,3.2 8,3.2 C7.5581722,3.2 7.2,3.5581722 7.2,4 L7.2,8 C7.2,8.4418278 7.5581722,8.8 8,8.8 C8.4418278,8.8 8.8,8.4418278 8.8,8 L8.8,4 Z" id="Line"></path>
                    <path d="M9.83431458,10.9656854 C10.146734,11.2781049 10.653266,11.2781049 10.9656854,10.9656854 C11.2781049,10.653266 11.2781049,10.146734 10.9656854,9.83431458 L8.56568542,7.43431458 C8.25326599,7.12189514 7.74673401,7.12189514 7.43431458,7.43431458 C7.12189514,7.74673401 7.12189514,8.25326599 7.43431458,8.56568542 L9.83431458,10.9656854 Z" id="Line"></path>
                </g>
            </g>
        </g>
    </g>
</svg>