<?xml version="1.0" encoding="UTF-8" standalone="no"?>
<svg width="13px" height="13px" viewBox="0 0 13 13" version="1.1" xmlns="http://www.w3.org/2000/svg" xmlns:xlink="http://www.w3.org/1999/xlink">
    <!-- Generator: Sketch 39.1 (31720) - http://www.bohemiancoding.com/sketch -->
    <title>Clock</title>
    <desc>Created with Sketch.</desc>
    <defs></defs>
    <g id="Page-1" stroke="none" stroke-width="1" fill="none" fill-rule="evenodd">
        <g id="Map-Screen" transform="translate(-16.000000, -572.000000)" fill="#7F8C8D">
            <g id="Card-1" transform="translate(8.000000, 421.000000)">
                <g id="Clock" transform="translate(8.000000, 151.000000)">
                    <path d="M6.5,11.700325 C3.63285,11.700325 1.3,9.367475 1.3,6.500325 C1.3,3.633175 3.63285,1.300325 6.5,1.300325 C9.36715,1.300325 11.7,3.633175 11.7,6.500325 C11.7,9.367475 9.36715,11.700325 6.5,11.700325 M6.5,0.000325 C2.9159,0.000325 0,2.916225 0,6.500325 C0,10.085075 2.9159,13.000325 6.5,13.000325 C10.0841,13.000325 13,10.085075 13,6.500325 C13,2.916225 10.0841,0.000325 6.5,0.000325" id="Fill-436"></path>
                    <path d="M7.15,3.25 C7.15,2.89101491 6.85898509,2.6 6.5,2.6 C6.14101491,2.6 5.85,2.89101491 5.85,3.25 L5.85,6.5 C5.85,6.85898509 6.14101491,7.15 6.5,7.15 C6.85898509,7.15 7.15,6.85898509 7.15,6.5 L7.15,3.25 Z" id="Line"></path>
                    <path d="M7.99038059,8.90961941 C8.24422138,9.1634602 8.65577862,9.1634602 8.90961941,8.90961941 C9.1634602,8.65577862 9.1634602,8.24422138 8.90961941,7.99038059 L6.95961941,6.04038059 C6.70577862,5.7865398 6.29422138,5.7865398 6.04038059,6.04038059 C5.7865398,6.29422138 5.7865398,6.70577862 6.04038059,6.95961941 L7.99038059,8.90961941 Z" id="Line"></path>
                </g>
            </g>
        </g>
    </g>
</svg>