<?xml version="1.0" encoding="UTF-8" standalone="no"?>
<svg width="16px" height="16px" viewBox="0 0 16 16" version="1.1" xmlns="http://www.w3.org/2000/svg" xmlns:xlink="http://www.w3.org/1999/xlink">
    <!-- Generator: Sketch 39.1 (31720) - http://www.bohemiancoding.com/sketch -->
    <title>Location</title>
    <desc>Created with Sketch.</desc>
    <defs></defs>
    <g id="Page-1" stroke="none" stroke-width="1" fill="none" fill-rule="evenodd">
        <g id="Home-Screen" transform="translate(-344.000000, -35.000000)" fill="#FFFFFF">
            <g id="Top">
                <g id="Current-Location" transform="translate(270.000000, 35.000000)">
                    <g id="Location" transform="translate(74.000000, 0.000000)">
                        <path d="M8.03877305,1.60220952 C6.70558249,1.60220952 5.62065233,2.67900952 5.62065233,4.00220952 C5.62065233,4.94860952 6.90467443,8.21100952 8.03877305,10.8238095 C9.17367771,8.21100952 10.4568938,4.94780952 10.4568938,4.00220952 C10.4568938,2.67900952 9.37196361,1.60220952 8.03877305,1.60220952 M8.03877305,13.6022095 C7.72280528,13.6022095 7.43585495,13.4190095 7.30527643,13.1334095 C6.75475095,11.9334095 4.00857185,5.85020952 4.00857185,4.00220952 C4.00857185,1.79660952 5.81652011,0.00220952381 8.03877305,0.00220952381 C10.261026,0.00220952381 12.0689743,1.79660952 12.0689743,4.00220952 C12.0689743,5.85020952 9.3236012,11.9334095 8.77226967,13.1334095 C8.64169115,13.4190095 8.35554687,13.6022095 8.03877305,13.6022095" id="Fill-602"></path>
                        <path d="M9.24783341,4.00220952 C9.24783341,4.66620952 8.70698041,5.20220952 8.03877305,5.20220952 C7.37056569,5.20220952 6.82971269,4.66620952 6.82971269,4.00220952 C6.82971269,3.33900952 7.37056569,2.80220952 8.03877305,2.80220952 C8.70698041,2.80220952 9.24783341,3.33900952 9.24783341,4.00220952" id="Fill-603"></path>
                        <path d="M14.0706946,16.0022095 L2.00669031,16.0022095 C1.46422522,16.0022095 0.962062153,15.7342095 0.661409143,15.2838095 C0.361562173,14.8310095 0.310781638,14.2662095 0.525994382,13.7702095 L2.25253258,9.77180952 C2.50562921,9.18300952 3.08759027,8.80220952 3.73403454,8.80220952 L4.3982117,8.80220952 L4.3982117,10.4022095 L3.73403454,10.4022095 L2.00669031,14.4022095 L14.0706946,14.4022095 L12.3433504,10.4022095 L11.6525739,10.4022095 L11.6525739,8.80220952 L12.3433504,8.80220952 C12.9897946,8.80220952 13.5717557,9.18300952 13.8256584,9.77260952 L15.5521966,13.7718095 C15.7666033,14.2662095 15.7158227,14.8310095 15.4167818,15.2822095 C15.1161288,15.7342095 14.6131597,16.0022095 14.0706946,16.0022095" id="Fill-604"></path>
                    </g>
                </g>
            </g>
        </g>
    </g>
</svg>