<?xml version="1.0" encoding="UTF-8" standalone="no"?>
<svg width="20px" height="20px" viewBox="0 0 20 20" version="1.1" xmlns="http://www.w3.org/2000/svg" xmlns:xlink="http://www.w3.org/1999/xlink">
    <!-- Generator: Sketch 39.1 (31720) - http://www.bohemiancoding.com/sketch -->
    <title>Here</title>
    <desc>Created with Sketch.</desc>
    <defs></defs>
    <g id="Page-1" stroke="none" stroke-width="1" fill="none" fill-rule="evenodd">
        <g id="Home-Screen" transform="translate(-37.000000, -632.000000)" fill="#33495F">
            <g id="Tab-Bar" transform="translate(0.000000, 618.000000)">
                <g id="Here" transform="translate(37.000000, 14.000000)">
                    <path d="M10,7.0022 C8.343,7.0022 7,8.3442 7,10.0022 C7,11.6592 8.343,13.0022 10,13.0022 C11.657,13.0022 13,11.6592 13,10.0022 C13,8.3442 11.657,7.0022 10,7.0022" id="Fill-586"></path>
                    <path d="M10,16.0022 C6.691,16.0022 4,13.3102 4,10.0022 C4,6.6942 6.691,4.0022 10,4.0022 C13.309,4.0022 16,6.6942 16,10.0022 C16,13.3102 13.309,16.0022 10,16.0022 L10,16.0022 Z M20,9.0022 L17.931,9.0022 C17.477,5.3902 14.612,2.5252 11,2.0712 L11,0.0022 L9,0.0022 L9,2.0712 C5.389,2.5252 2.523,5.3902 2.069,9.0022 L0,9.0022 L0,11.0022 L2.069,11.0022 C2.523,14.6142 5.389,17.4792 9,17.9332 L9,20.0022 L11,20.0022 L11,17.9332 C14.612,17.4792 17.477,14.6142 17.931,11.0022 L20,11.0022 L20,9.0022 Z" id="Fill-587"></path>
                </g>
            </g>
        </g>
    </g>
</svg>