<?xml version="1.0" encoding="UTF-8" standalone="no"?>
<svg width="21px" height="20px" viewBox="0 0 21 20" version="1.1" xmlns="http://www.w3.org/2000/svg" xmlns:xlink="http://www.w3.org/1999/xlink">
    <!-- Generator: Sketch 39.1 (31720) - http://www.bohemiancoding.com/sketch -->
    <title>Map</title>
    <desc>Created with Sketch.</desc>
    <defs></defs>
    <g id="Page-1" stroke="none" stroke-width="1" fill="none" fill-rule="evenodd">
        <g id="Home-Screen" transform="translate(-315.000000, -633.000000)" fill="#33495F">
            <g id="Tab-Bar" transform="translate(0.000000, 618.000000)">
                <g id="Map" transform="translate(315.000000, 15.000000)">
                    <path d="M6.71322739,2.58632596 L6.32204383,2.5864829 L11.101738,3.68825667 L11.3190005,3.73833816 L11.5335466,3.67766217 L15.4293424,2.57588839 L14.9970632,2.58637429 L19.7646552,3.68814807 L19.0909737,2.84090421 L19.0909737,18.2451596 L20.154451,17.3975363 L15.3441883,16.2957625 L15.1281216,16.2462732 L14.9147396,16.3062947 L10.9978336,17.4080685 L11.4304285,17.3982631 L6.70096369,16.2964893 L6.50521106,16.2508869 L6.3093096,16.2958454 L1.50845659,17.3976192 L2.57229032,18.2481052 L2.62446076,2.84384974 L1.95099319,3.68809974 L6.71322739,2.58632596 Z M0.887995891,2.14897993 L0.885662489,2.83795868 L0.833492044,18.2422141 L0.829781913,19.3376965 L1.89732578,19.0927001 L6.69817879,17.9909263 L6.30652469,17.9902824 L11.0359895,19.0920562 L11.2535464,19.1427381 L11.4685845,19.0822508 L15.3854904,17.980477 L14.9560418,17.9910092 L19.7663046,19.092783 L20.8297819,19.3363687 L20.8297819,18.2451596 L20.8297819,2.84090421 L20.8297819,2.1493458 L20.1561003,1.99366035 L15.3885082,0.891886575 L15.1710228,0.841626452 L14.956229,0.90237248 L11.0604333,2.00414626 L11.492242,1.99355175 L6.71254783,0.891777973 L6.51693793,0.846687671 L6.32136426,0.891934908 L1.55913006,1.99370868 L0.887995891,2.14897993 Z" id="Path-3"></path>
                    <polygon id="Path-4" points="5.41666667 17.1499235 7.08333333 17.1499235 7.08333333 1.81290336 5.41666667 1.81290336"></polygon>
                    <polygon id="Path-4" points="10 18.0194887 11.6666667 18.0194887 11.6666667 2.68246858 10 2.68246858"></polygon>
                    <polygon id="Path-4" points="14.5 17.1499235 16.1666667 17.1499235 16.1666667 1.81290336 14.5 1.81290336"></polygon>
                </g>
            </g>
        </g>
    </g>
</svg>