<?xml version="1.0" encoding="UTF-8" standalone="no"?>
<svg width="16px" height="16px" viewBox="0 0 16 16" version="1.1" xmlns="http://www.w3.org/2000/svg" xmlns:xlink="http://www.w3.org/1999/xlink">
    <!-- Generator: Sketch 39.1 (31720) - http://www.bohemiancoding.com/sketch -->
    <title>Price</title>
    <desc>Created with Sketch.</desc>
    <defs></defs>
    <g id="Page-1" stroke="none" stroke-width="1" fill="none" fill-rule="evenodd">
        <g id="Map-Screen-Details" transform="translate(-147.000000, -469.000000)" fill="#227EBA">
            <g id="Card-1" transform="translate(8.000000, 211.000000)">
                <g id="Price" transform="translate(139.000000, 258.000000)">
                    <path d="M9.6,1.92064 L9.6,2.59264 C8.8704,2.74176 8.32,3.38816 8.32,4.16064 C8.32,5.04256 9.03808,5.76064 9.92,5.76064 L10.56,5.76064 C10.73664,5.76064 10.88,5.90464 10.88,6.08064 C10.88,6.25728 10.73664,6.40064 10.56,6.40064 L9.6,6.40064 L9.6,8.32064 L10.88,8.32064 L10.88,7.64864 C11.6096,7.49952 12.16,6.85376 12.16,6.08064 C12.16,5.19872 11.44192,4.48064 10.56,4.48064 L9.92,4.48064 C9.74336,4.48064 9.6,4.33728 9.6,4.16064 C9.6,3.98464 9.74336,3.84064 9.92,3.84064 L12.16,3.84064 L12.16,2.56064 L10.88,2.56064 L10.88,1.92064 L9.6,1.92064 Z" id="Fill-95"></path>
                    <path d="M2.56,12.80064 L1.28,12.80064 L1.28,8.96064 L2.56,8.96064 L2.56,12.80064 Z M12.16,11.52064 C12.16,11.87392 11.87264,12.16064 11.52,12.16064 L8.32,12.16064 L8.32,13.44064 L10.88,13.44064 C10.88,13.79392 10.59264,14.08064 10.24,14.08064 L5.38496,14.08064 L3.84,12.53568 L3.84,9.2256 L5.38496,7.68064 L7.68,7.68064 L7.68,8.32064 C7.68,8.67392 7.39264,8.96064 7.04,8.96064 L5.76,8.96064 L5.76,10.24064 L7.04,10.24064 C8.09856,10.24064 8.96,9.3792 8.96,8.32064 L8.96,7.04064 C8.96,6.68736 8.67328,6.40064 8.32,6.40064 L5.12,6.40064 C4.9504,6.40064 4.7872,6.46784 4.66752,6.58816 L3.4944,7.76192 C3.4048,7.71392 3.30816,7.68064 3.2,7.68064 L0.64,7.68064 C0.28672,7.68064 0,7.96736 0,8.32064 L0,13.44064 C0,13.79392 0.28672,14.08064 0.64,14.08064 L3.2,14.08064 C3.30816,14.08064 3.4048,14.04736 3.4944,14 L4.66752,15.17312 C4.7872,15.2928 4.9504,15.36064 5.12,15.36064 L10.24,15.36064 C11.29856,15.36064 12.16,14.4992 12.16,13.44064 L12.16,13.32288 C12.90368,13.05792 13.44,12.35392 13.44,11.52064 L13.44,10.88064 L12.16,10.88064 L12.16,11.52064 Z" id="Fill-96"></path>
                    <path d="M10.24,0.00064 C7.41696,0.00064 5.12,2.2976 5.12,5.12064 C5.12,5.33824 5.13792,5.55008 5.16416,5.76064 L6.4576,5.76064 C6.4224,5.552 6.4,5.33888 6.4,5.12064 C6.4,3.00352 8.12224,1.28064 10.24,1.28064 C12.35776,1.28064 14.08,3.00352 14.08,5.12064 C14.08,7.2384 12.35776,8.96064 10.24,8.96064 C10.02176,8.96064 9.80864,8.93824 9.6,8.90304 L9.6,10.19648 C9.80992,10.22272 10.02304,10.24064 10.24,10.24064 C13.06304,10.24064 15.36,7.94368 15.36,5.12064 C15.36,2.2976 13.06304,0.00064 10.24,0.00064" id="Fill-97"></path>
                </g>
            </g>
        </g>
    </g>
</svg>