<?xml version="1.0" encoding="UTF-8" standalone="no"?>
<svg width="13px" height="13px" viewBox="0 0 13 13" version="1.1" xmlns="http://www.w3.org/2000/svg" xmlns:xlink="http://www.w3.org/1999/xlink">
    <!-- Generator: Sketch 39.1 (31720) - http://www.bohemiancoding.com/sketch -->
    <title>Price</title>
    <desc>Created with Sketch.</desc>
    <defs></defs>
    <g id="Page-1" stroke="none" stroke-width="1" fill="none" fill-rule="evenodd">
        <g id="Map-Screen" transform="translate(-16.000000, -589.000000)" fill="#7F8C8D">
            <g id="Card-1" transform="translate(8.000000, 421.000000)">
                <g id="Price" transform="translate(8.000000, 168.000000)">
                    <path d="M7.8,1.56052 L7.8,2.10652 C7.2072,2.22768 6.76,2.75288 6.76,3.38052 C6.76,4.09708 7.34344,4.68052 8.06,4.68052 L8.58,4.68052 C8.72352,4.68052 8.84,4.79752 8.84,4.94052 C8.84,5.08404 8.72352,5.20052 8.58,5.20052 L7.8,5.20052 L7.8,6.76052 L8.84,6.76052 L8.84,6.21452 C9.4328,6.09336 9.88,5.56868 9.88,4.94052 C9.88,4.22396 9.29656,3.64052 8.58,3.64052 L8.06,3.64052 C7.91648,3.64052 7.8,3.52404 7.8,3.38052 C7.8,3.23752 7.91648,3.12052 8.06,3.12052 L9.88,3.12052 L9.88,2.08052 L8.84,2.08052 L8.84,1.56052 L7.8,1.56052 Z" id="Fill-95"></path>
                    <path d="M2.08,10.40052 L1.04,10.40052 L1.04,7.28052 L2.08,7.28052 L2.08,10.40052 Z M9.88,9.36052 C9.88,9.64756 9.64652,9.88052 9.36,9.88052 L6.76,9.88052 L6.76,10.92052 L8.84,10.92052 C8.84,11.20756 8.60652,11.44052 8.32,11.44052 L4.37528,11.44052 L3.12,10.18524 L3.12,7.4958 L4.37528,6.24052 L6.24,6.24052 L6.24,6.76052 C6.24,7.04756 6.00652,7.28052 5.72,7.28052 L4.68,7.28052 L4.68,8.32052 L5.72,8.32052 C6.58008,8.32052 7.28,7.6206 7.28,6.76052 L7.28,5.72052 C7.28,5.43348 7.04704,5.20052 6.76,5.20052 L4.16,5.20052 C4.0222,5.20052 3.8896,5.25512 3.79236,5.35288 L2.8392,6.30656 C2.7664,6.26756 2.68788,6.24052 2.6,6.24052 L0.52,6.24052 C0.23296,6.24052 0,6.47348 0,6.76052 L0,10.92052 C0,11.20756 0.23296,11.44052 0.52,11.44052 L2.6,11.44052 C2.68788,11.44052 2.7664,11.41348 2.8392,11.375 L3.79236,12.32816 C3.8896,12.4254 4.0222,12.48052 4.16,12.48052 L8.32,12.48052 C9.18008,12.48052 9.88,11.7806 9.88,10.92052 L9.88,10.82484 C10.48424,10.60956 10.92,10.03756 10.92,9.36052 L10.92,8.84052 L9.88,8.84052 L9.88,9.36052 Z" id="Fill-96"></path>
                    <path d="M8.32,0.00052 C6.02628,0.00052 4.16,1.8668 4.16,4.16052 C4.16,4.33732 4.17456,4.50944 4.19588,4.68052 L5.2468,4.68052 C5.2182,4.511 5.2,4.33784 5.2,4.16052 C5.2,2.44036 6.59932,1.04052 8.32,1.04052 C10.04068,1.04052 11.44,2.44036 11.44,4.16052 C11.44,5.8812 10.04068,7.28052 8.32,7.28052 C8.14268,7.28052 7.96952,7.26232 7.8,7.23372 L7.8,8.28464 C7.97056,8.30596 8.14372,8.32052 8.32,8.32052 C10.61372,8.32052 12.48,6.45424 12.48,4.16052 C12.48,1.8668 10.61372,0.00052 8.32,0.00052" id="Fill-97"></path>
                </g>
            </g>
        </g>
    </g>
</svg>