<?xml version="1.0" encoding="UTF-8" standalone="no"?>
<svg width="20px" height="20px" viewBox="0 0 20 20" version="1.1" xmlns="http://www.w3.org/2000/svg" xmlns:xlink="http://www.w3.org/1999/xlink">
    <!-- Generator: Sketch 39.1 (31720) - http://www.bohemiancoding.com/sketch -->
    <title>Fill 389</title>
    <desc>Created with Sketch.</desc>
    <defs></defs>
    <g id="Page-1" stroke="none" stroke-width="1" fill="none" fill-rule="evenodd">
        <g id="Home-Screen" transform="translate(-225.000000, -633.000000)" fill="#33495F">
            <g id="Tab-Bar" transform="translate(0.000000, 618.000000)">
                <g id="Fill-389" transform="translate(226.000000, 15.000000)">
                    <path d="M16,18.0005 L6,18.0005 L6,2.0005 L9,2.0005 L9,11.0005 L11.5,9.0005 L14,11.0005 L14,2.0005 L16,2.0005 L16,18.0005 Z M2,2.0005 L4,2.0005 L4,18.0005 L2,18.0005 L2,2.0005 Z M17,0.0005 L1,0.0005 C0.448,0.0005 0,0.4485 0,1.0005 L0,19.0005 C0,19.5525 0.448,20.0005 1,20.0005 L17,20.0005 C17.552,20.0005 18,19.5525 18,19.0005 L18,1.0005 C18,0.4485 17.552,0.0005 17,0.0005 L17,0.0005 Z"></path>
                </g>
            </g>
        </g>
    </g>
</svg>