<?xml version="1.0" encoding="UTF-8" standalone="no"?>
<svg width="16px" height="16px" viewBox="0 0 16 16" version="1.1" xmlns="http://www.w3.org/2000/svg" xmlns:xlink="http://www.w3.org/1999/xlink">
    <!-- Generator: Sketch 39.1 (31720) - http://www.bohemiancoding.com/sketch -->
    <title>Scooter</title>
    <desc>Created with Sketch.</desc>
    <defs></defs>
    <g id="Page-1" stroke="none" stroke-width="1" fill="none" fill-rule="evenodd">
        <g id="Map-Screen-Details" transform="translate(-254.000000, -469.000000)" fill="#227EBA">
            <g id="Card-1" transform="translate(8.000000, 211.000000)">
                <g id="Scooter" transform="translate(248.000000, 258.000000)">
                    <path d="M3.63054545,2.22545455 C3.72436364,1.98981818 4.64872727,1.45454545 5.81818182,1.45454545 C6.98836364,1.45454545 7.912,1.98981818 8,2.18181818 C8,2.74836364 7.59927273,4.36363636 5.81818182,4.36363636 C4.03709091,4.36363636 3.63636364,2.74836364 3.63054545,2.22545455 L3.63054545,2.22545455 Z M9.45454545,9.45454545 L9.45454545,11.6363636 L8,11.6363636 L8,10.1818182 C8,8.97890909 7.02181818,8 5.81818182,8 C4.61527273,8 3.63636364,8.97890909 3.63636364,10.1818182 L3.63636364,11.6363636 L2.18181818,11.6363636 L2.18181818,9.45454545 C2.18181818,7.45018182 3.81309091,5.81818182 5.81818182,5.81818182 C7.82327273,5.81818182 9.45454545,7.45018182 9.45454545,9.45454545 L9.45454545,9.45454545 Z M6.54545455,13.0909091 C6.54545455,13.4923636 6.21890909,13.8181818 5.81818182,13.8181818 C5.41745455,13.8181818 5.09090909,13.4923636 5.09090909,13.0909091 L5.09090909,10.1818182 C5.09090909,9.78181818 5.41745455,9.45454545 5.81818182,9.45454545 C6.21890909,9.45454545 6.54545455,9.78181818 6.54545455,10.1818182 L6.54545455,13.0909091 Z M9.37090909,2.90909091 L11.6363636,2.90909091 L11.6363636,1.45454545 L9.23418182,1.45454545 C8.68436364,0.571636364 7.19054545,0 5.81818182,0 C4.44654545,0 2.95272727,0.571636364 2.40290909,1.45454545 L0,1.45454545 L0,2.90909091 L2.26545455,2.90909091 C2.42109091,3.63345455 2.80654545,4.39272727 3.44218182,4.95636364 C1.82909091,5.81163636 0.727272727,7.50618182 0.727272727,9.45454545 L0.727272727,12.3636364 C0.727272727,12.7658182 1.05309091,13.0909091 1.45454545,13.0909091 L3.63636364,13.0909091 C3.63636364,14.2945455 4.61527273,15.2727273 5.81818182,15.2727273 C7.02181818,15.2727273 8,14.2945455 8,13.0909091 L10.1818182,13.0909091 C10.5832727,13.0909091 10.9090909,12.7658182 10.9090909,12.3636364 L10.9090909,9.45454545 C10.9090909,7.50618182 9.80727273,5.81163636 8.19490909,4.95636364 C8.83054545,4.39272727 9.21527273,3.63345455 9.37090909,2.90909091 L9.37090909,2.90909091 Z" id="Fill-753"></path>
                    <path d="M5.81890909,2.18363636 C5.41745455,2.18363636 5.09163636,2.50872727 5.09163636,2.91090909 C5.09163636,3.31309091 5.41745455,3.63818182 5.81890909,3.63818182 C6.22036364,3.63818182 6.54618182,3.31309091 6.54618182,2.91090909 C6.54618182,2.50872727 6.22036364,2.18363636 5.81890909,2.18363636" id="Fill-754"></path>
                </g>
            </g>
        </g>
    </g>
</svg>