<?xml version="1.0" encoding="UTF-8" standalone="no"?>
<svg width="16px" height="16px" viewBox="0 0 16 16" version="1.1" xmlns="http://www.w3.org/2000/svg" xmlns:xlink="http://www.w3.org/1999/xlink">
    <!-- Generator: Sketch 39.1 (31720) - http://www.bohemiancoding.com/sketch -->
    <title>Search</title>
    <desc>Created with Sketch.</desc>
    <defs></defs>
    <g id="Page-1" stroke="none" stroke-width="1" fill="none" fill-rule="evenodd">
        <g id="Home-Screen" transform="translate(-59.000000, -130.000000)" fill="#FFFFFF">
            <g id="Top">
                <g id="Search" transform="translate(43.000000, 114.000000)">
                    <g transform="translate(16.000000, 24.000000) scale(-1, 1) translate(-16.000000, -24.000000) translate(0.000000, 16.000000)">
                        <path d="M14.5454545,5.81818182 C14.5454545,3.408212 12.591788,1.45454545 10.1818182,1.45454545 C7.77184836,1.45454545 5.81818182,3.408212 5.81818182,5.81818182 C5.81818182,8.22815164 7.77184836,10.1818182 10.1818182,10.1818182 C12.591788,10.1818182 14.5454545,8.22815164 14.5454545,5.81818182 Z M4.36363636,5.81818182 C4.36363636,2.60488873 6.96852509,0 10.1818182,0 C13.3951113,0 16,2.60488873 16,5.81818182 C16,9.03147491 13.3951113,11.6363636 10.1818182,11.6363636 C6.96852509,11.6363636 4.36363636,9.03147491 4.36363636,5.81818182 Z" id="Oval"></path>
                        <polygon id="Path-2" points="0.683156239 14.0322015 2.22593467 15.5749799 7.57497991 10.2259347 6.03220148 8.68315624"></polygon>
                    </g>
                </g>
            </g>
        </g>
    </g>
</svg>